<!--?xml version="1.0" encoding="utf-8"?-->
<!-- Generator: Adobe Illustrator 18.1.1, SVG Export Plug-In . SVG Version: 6.00 Build 0)  -->

<svg version="1.1" id="_x32_" xmlns="http://www.w3.org/2000/svg" xmlns:xlink="http://www.w3.org/1999/xlink" x="0px" y="0px" viewBox="0 0 512 512" style="width: 256px; height: 256px; opacity: 1;" xml:space="preserve">
<style type="text/css">
	.st0{fill:#4B4B4B;}
</style>
<g>
	<path class="st0" d="M333.811,49.058C199.14,11.302,55.154,73.354,12.177,187.646c-42.96,114.291,31.368,237.546,166.03,275.301
		c134.654,37.746,278.648-24.306,321.608-138.588C542.793,210.059,468.457,86.813,333.811,49.058z M278.585,256.979
		c-2.55,4.276-51.004,85.57-63.603,94.043c-4.433-13.248,11.662-103.611,12.512-108.36c-5.047-2.216-101.008-44.308-111.076-55.121
		c15.492-3.628,121.783,10.987,127.373,11.75c2.559-4.276,50.995-85.578,63.586-94.034c4.442,13.24-11.645,103.602-12.495,108.359
		c5.056,2.208,101.017,44.3,111.076,55.096C390.466,272.365,284.184,257.75,278.585,256.979z" style="fill: rgb(136, 56, 56);"></path>
</g>
</svg>
