<svg xmlns="http://www.w3.org/2000/svg" width="496.427" height="209.663" viewBox="0 0 496.427 209.663"><defs><style>.a{fill:#fff;}.b{fill:#fcdc4a;}.c{fill:#211715;}</style></defs><path class="a" d="M232.672,207.4c0-10.488-.477-85.214-.477-96.765H130.567c0,1.583.129,77.71.129,96.935"></path><path class="a" d="M226.371,110.637c0-2.691-.045-6.728-.045-8.389H135.917c0,1.457.009,7.235.009,8.389"></path><path class="a" d="M278.207,207.555c0-11.532-.242-118.678-.242-131.379H193.458c0,3.945.142,129.819.142,131.122"></path><path class="a" d="M370.138,207.384c0-11.557-.525-72.035-.525-84.764H248.255c0,1.746.142,63.767.142,84.952"></path><path class="a" d="M379.252,46.635c0-2.691-.006-6.807-.006-8.468-21.278,0-60.848-.006-65.66-.006v8.493"></path><path class="a" d="M386.711,207.594c0-6.539-.52-148.057-.52-160.678H306.127c0,.919.039,117.957.077,160.762"></path><path class="a" d="M94.341,207.4c0-10.488-.477-68.206-.477-79.757H14.914c0,1.583.129,71.97.129,79.949"></path><path class="a" d="M115.154,207.568c0-4.889-.069-146.258-.074-150.7H36.13c0,.7.025,123,.053,150.673"></path><path class="a" d="M482.909,206.564c0-12.22-.477-98.784-.477-112.243H403.525c0,1.846.129,90.043.129,112.441"></path><path class="b" d="M403.651,170.39c0-1.621,0-74.151,0-76.069h78.913c0,1.918,0,74.448,0,76.069" style="fill: rgb(165, 197, 214);"></path><path class="b" d="M335.148,134.569c-1.114,0-10.307.023-12.17.023v11.9H335.1C335.1,144.507,335.148,135.132,335.148,134.569Z" style="fill: rgb(165, 197, 214);"></path><path class="b" d="M357.014,134.569c-1.115,0-10.308.023-12.17.023v11.9h12.118C356.962,144.507,357.014,135.132,357.014,134.569Z" style="fill: rgb(165, 197, 214);"></path><path class="b" d="M40.236,142.038c-1.012,0-9.354.02-11.044.02v10.8h11C40.189,151.056,40.236,142.548,40.236,142.038Z" style="fill: rgb(165, 197, 214);"></path><path class="b" d="M60.078,142.038c-1.011,0-9.354.02-11.044.02v10.8h11C60.032,151.056,60.078,142.548,60.078,142.038Z" style="fill: rgb(165, 197, 214);"></path><path class="b" d="M79.921,141.89c-1.012,0-9.354.02-11.044.02v10.8h11C79.874,150.908,79.921,142.4,79.921,141.89Z" style="fill: rgb(165, 197, 214);"></path><path class="b" d="M40.236,162.447c-1.012,0-9.354.021-11.044.021v10.8h11C40.189,171.466,40.236,162.958,40.236,162.447Z" style="fill: rgb(165, 197, 214);"></path><path class="b" d="M60.078,162.447c-1.011,0-9.354.021-11.044.021v10.8h11C60.032,171.466,60.078,162.958,60.078,162.447Z" style="fill: rgb(165, 197, 214);"></path><path class="b" d="M79.921,162.3c-1.012,0-9.354.021-11.044.021v10.8h11C79.874,171.318,79.921,162.81,79.921,162.3Z" style="fill: rgb(165, 197, 214);"></path><path class="b" d="M386.315,46.916c-6.5,0-69.339.023-80.188.023v11.8h80.2C386.325,56.77,386.315,47.474,386.315,46.916Z" style="fill: rgb(165, 197, 214);"></path><path class="b" d="M36.234,127.192c0-.764,0-69.418,0-70.322H47.572c0,.9,0,69.558,0,70.322" style="fill: rgb(165, 197, 214);"></path><path class="b" d="M58.911,127.192V56.87H70.25v70.322" style="fill: rgb(165, 197, 214);"></path><path class="b" d="M232.2,121.781c-5.945,0-91.528.021-101.459.021v10.8H232.211" style="fill: rgb(165, 197, 214);"></path><path class="b" d="M232.2,142.191c-5.945,0-91.528.02-101.459.02v10.8H232.211" style="fill: rgb(165, 197, 214);"></path><path class="b" d="M232.2,162.6c-5.945,0-91.528.02-101.459.02v10.8H232.211" style="fill: rgb(165, 197, 214);"></path><path class="c" d="M228.371,110.637c0-2.8-.043-5.593-.045-8.389a2.03,2.03,0,0,0-2-2H135.917a2.03,2.03,0,0,0-2,2c0,2.8.009,5.593.009,8.389,0,2.573,4,2.578,4,0,0-2.8-.008-5.593-.009-8.389l-2,2h90.409l-2-2c0,2.8.043,5.592.045,8.389,0,2.573,4,2.578,4,0Z"></path><path class="c" d="M234.672,207.4c0-11.332-.1-22.664-.161-33.995q-.13-23.7-.257-47.392c-.025-5.126-.058-10.252-.059-15.378a2.028,2.028,0,0,0-2-2H130.567a2.029,2.029,0,0,0-2,2q0,14.135.044,28.27.039,24.624.07,49.248.01,9.709.015,19.417c0,2.574,4,2.578,4,0q0-20.441-.043-40.881-.033-22.842-.07-45.684-.007-5.186-.016-10.37l-2,2H232.2l-2-2c0,11.584.1,23.169.161,34.753q.129,23.589.257,47.18c.025,4.944.058,9.888.059,14.832,0,2.574,4,2.578,4,0Z"></path><path class="c" d="M381.252,46.635q0-4.235-.006-8.468a2.029,2.029,0,0,0-2-2q-29.04,0-58.081-.005h-7.579a2.029,2.029,0,0,0-2,2v8.493c0,2.574,4,2.578,4,0V38.161l-2,2q24.823,0,49.647,0h16.013l-2-2q0,4.233.006,8.468c0,2.573,4,2.578,4,0Z"></path><path class="c" d="M128.764,129.047V162.83c0,2.574,4,2.579,4,0V129.047c0-2.574-4-2.578-4,0Z"></path><path class="c" d="M45.573,56.87v64.182c0,2.574,4,2.578,4,0V56.87c0-2.574-4-2.579-4,0Z"></path><path class="c" d="M56.911,56.87v64.182c0,2.574,4,2.578,4,0V56.87c0-2.574-4-2.579-4,0Z"></path><path class="c" d="M68.25,56.87v64.182c0,2.574,4,2.578,4,0V56.87c0-2.574-4-2.579-4,0Z"></path><path class="c" d="M86.749,57.816V82.99c0,2.574,4,2.578,4,0V57.816c0-2.574-4-2.578-4,0Z"></path><path class="c" d="M98.485,57.816V94.705c0,2.574,4,2.578,4,0V57.816c0-2.574-4-2.578-4,0Z"></path><path class="c" d="M117.154,171.89q0-6.445-.007-12.891-.008-13.464-.017-26.927-.009-15.968-.02-31.935-.009-13.958-.019-27.916,0-7.423-.01-14.848v-.5a2.028,2.028,0,0,0-2-2H36.13a2.028,2.028,0,0,0-2,2q0,22.659.035,45.32.009,9.431.018,18.862c0,2.574,4,2.578,4,0q-.03-29.571-.05-59.142,0-2.52,0-5.04l-2,2h78.95l-2-2q.007,6.339.009,12.679l.018,26.818.021,31.929.018,28.013q0,7.523.008,15.046v.535c0,2.574,4,2.578,4,0Z"></path><path class="c" d="M367.3,209.4c2.574,0,2.578-4,0-4s-2.578,4,0,4Z"></path><path class="c" d="M372.138,207.384c0-10.078-.106-20.156-.178-30.234q-.144-20.1-.282-40.191c-.029-4.779-.064-9.559-.065-14.339a2.029,2.029,0,0,0-2-2H248.255a2.03,2.03,0,0,0-2,2c0,7.9.032,15.794.048,23.691q.043,21.222.076,42.443.014,9.41.018,18.818c0,2.574,4,2.578,4,0q0-18.791-.048-37.583-.034-19.276-.077-38.553c-.006-2.938-.017-5.877-.017-8.816l-2,2H369.613l-2-2c0,10.358.105,20.715.178,31.072q.143,19.978.282,39.958c.029,4.578.065,9.156.065,13.734,0,2.574,4,2.579,4,0Z"></path><path class="c" d="M280.207,113.725c0-12.517-.239-25.032-.242-37.549a2.029,2.029,0,0,0-2-2H193.458a2.028,2.028,0,0,0-2,2c0,6,.134,12,.142,18,0,2.574,4,2.578,4,0-.008-6-.14-12-.142-18l-2,2h84.507l-2-2c0,12.517.239,25.032.242,37.549,0,2.573,4,2.578,4,0Z"></path><path class="c" d="M94.341,209.4c2.574,0,2.578-4,0-4s-2.578,4,0,4Z"></path><path class="c" d="M96.341,207.4c0-9.444-.1-18.888-.161-28.331q-.131-19.088-.257-38.174c-.026-4.417-.058-8.835-.059-13.252a2.028,2.028,0,0,0-2-2H14.914a2.029,2.029,0,0,0-2,2c0,11.922.082,23.844.113,35.766q.011,4.258.016,8.516c0,2.574,4,2.578,4,0,0-13.02-.07-26.04-.113-39.06-.006-1.74-.015-3.482-.016-5.222l-2,2h78.95l-2-2c0,9.7.1,19.393.162,29.089q.129,18.981.257,37.961c.025,4.235.058,8.471.058,12.707,0,2.574,4,2.578,4,0Z"></path><path class="c" d="M40.236,140.038c-3.682,0-7.363.02-11.044.02a2.029,2.029,0,0,0-2,2v10.8a2.029,2.029,0,0,0,2,2h11a2.029,2.029,0,0,0,2-2c0-3.607.044-7.215.047-10.822a2,2,0,0,0-4,0c0,3.607-.046,7.215-.047,10.822l2-2h-11l2,2v-10.8l-2,2c3.681,0,7.362-.02,11.044-.02a2,2,0,0,0,0-4Z"></path><path class="c" d="M60.078,140.038c-3.681,0-7.362.02-11.044.02a2.029,2.029,0,0,0-2,2v10.8a2.03,2.03,0,0,0,2,2h11a2.03,2.03,0,0,0,2-2c0-3.607.044-7.215.046-10.822a2,2,0,0,0-4,0c0,3.607-.046,7.215-.046,10.822l2-2h-11l2,2v-10.8l-2,2c3.682,0,7.363-.02,11.044-.02a2,2,0,0,0,0-4Z"></path><path class="c" d="M79.921,139.89c-3.681,0-7.363.02-11.044.02a2.029,2.029,0,0,0-2,2v10.8a2.029,2.029,0,0,0,2,2h11a2.028,2.028,0,0,0,2-2c0-3.607.044-7.215.047-10.822a2,2,0,0,0-4,0c0,3.607-.046,7.215-.047,10.822l2-2h-11l2,2v-10.8l-2,2c3.681,0,7.363-.02,11.044-.02a2,2,0,0,0,0-4Z"></path><path class="c" d="M40.236,160.447c-3.682,0-7.363.02-11.044.021a2.029,2.029,0,0,0-2,2v10.8a2.029,2.029,0,0,0,2,2h11a2.03,2.03,0,0,0,2-2c0-3.608.044-7.215.047-10.823a2,2,0,0,0-4,0c0,3.608-.046,7.215-.047,10.823l2-2h-11l2,2v-10.8l-2,2c3.681,0,7.362-.02,11.044-.021a2,2,0,0,0,0-4Z"></path><path class="c" d="M60.078,160.447c-3.681,0-7.362.02-11.044.021a2.029,2.029,0,0,0-2,2v10.8a2.03,2.03,0,0,0,2,2h11a2.03,2.03,0,0,0,2-2c0-3.608.044-7.215.046-10.823a2,2,0,0,0-4,0c0,3.608-.046,7.215-.046,10.823l2-2h-11l2,2v-10.8l-2,2c3.682,0,7.363-.02,11.044-.021a2,2,0,0,0,0-4Z"></path><path class="c" d="M79.921,160.3c-3.681,0-7.363.02-11.044.021a2.029,2.029,0,0,0-2,2v10.8a2.028,2.028,0,0,0,2,2h11a2.028,2.028,0,0,0,2-2c0-3.607.044-7.214.047-10.822a2,2,0,0,0-4,0c0,3.608-.046,7.215-.047,10.822l2-2h-11l2,2v-10.8l-2,2c3.681,0,7.363-.02,11.044-.021a2,2,0,1,0,0-4Z"></path><path class="c" d="M130.744,134.6H232.211c2.574,0,2.579-4,0-4H130.744c-2.573,0-2.578,4,0,4Z"></path><path class="c" d="M130.744,123.781H232.211c2.574,0,2.579-4,0-4H130.744c-2.573,0-2.578,4,0,4Z"></path><path class="c" d="M130.744,155.013H232.211c2.574,0,2.579-4,0-4H130.744c-2.573,0-2.578,4,0,4Z"></path><path class="c" d="M130.744,144.191H232.211c2.574,0,2.579-4,0-4H130.744c-2.573,0-2.578,4,0,4Z"></path><path class="c" d="M130.744,175.422H232.211c2.574,0,2.579-4,0-4H130.744c-2.573,0-2.578,4,0,4Z"></path><path class="c" d="M130.744,164.6H232.211c2.574,0,2.579-4,0-4H130.744c-2.573,0-2.578,4,0,4Z"></path><path class="c" d="M278.191,180.131v27.347c0,2.574,4,2.578,4,0V180.131c0-2.573-4-2.578-4,0Z"></path><path class="c" d="M258.864,180.131v27.347c0,2.574,4,2.578,4,0V180.131c0-2.573-4-2.578-4,0Z"></path><path class="c" d="M297.519,180.131v27.347c0,2.574,4,2.578,4,0V180.131c0-2.573-4-2.578-4,0Z"></path><path class="c" d="M316.847,180.131v27.347c0,2.574,4,2.578,4,0V180.131c0-2.573-4-2.578-4,0Z"></path><path class="c" d="M336.175,180.131v27.347c0,2.574,4,2.578,4,0V180.131c0-2.573-4-2.578-4,0Z"></path><path class="c" d="M355.5,180.131v27.347c0,2.574,4,2.578,4,0V180.131c0-2.573-4-2.578-4,0Z"></path><path class="c" d="M388.711,171.89c0-4.585-.032-9.169-.051-13.754q-.06-13.935-.125-27.869-.075-16.692-.15-33.384-.067-15.151-.13-30.3-.037-9.289-.064-18.578V46.916a2.03,2.03,0,0,0-2-2H306.127a2.03,2.03,0,0,0-2,2q0,5.519.015,11.037.021,15.265.037,30.531.014,12.68.025,25.36c0,2.574,4,2.578,4,0q-.018-20.452-.042-40.906-.013-11.106-.03-22.213,0-1.9,0-3.809l-2,2h80.064l-2-2c0,5.541.03,11.081.051,16.622q.058,14.672.125,29.344.073,16.736.15,33.469.066,14.5.13,28.993.036,7.947.064,15.892v.654c0,2.574,4,2.578,4,0Z"></path><path class="c" d="M372.337,72.9h-53.43c-2.573,0-2.578,4,0,4h53.43c2.574,0,2.578-4,0-4Z"></path><path class="c" d="M386.042,56.74H306.127c-2.574,0-2.578,4,0,4h79.915c2.573,0,2.578-4,0-4Z"></path><path class="c" d="M372.337,85.287h-53.43c-2.573,0-2.578,4,0,4h53.43c2.574,0,2.578-4,0-4Z"></path><path class="c" d="M372.337,97.675h-53.43c-2.573,0-2.578,4,0,4h53.43c2.574,0,2.578-4,0-4Z"></path><path class="c" d="M370,187.592H248.369c-2.574,0-2.578,4,0,4H370c2.574,0,2.578-4,0-4Z"></path><path class="c" d="M370,178.131H248.369c-2.574,0-2.578,4,0,4H370c2.574,0,2.578-4,0-4Z"></path><path class="c" d="M429.636,183.981v22.682c0,2.574,4,2.578,4,0V183.981c0-2.573-4-2.578-4,0Z"></path><path class="c" d="M442.062,184.808v21.311c0,2.574,4,2.579,4,0V184.808c0-2.573-4-2.578-4,0Z"></path><path class="c" d="M454.488,183.981v22.682c0,2.574,4,2.578,4,0V183.981c0-2.573-4-2.578-4,0Z"></path><path class="c" d="M484.909,171.89c0-8.456-.1-16.913-.161-25.368q-.135-19-.257-38c-.028-4.733-.058-9.466-.059-14.2a2.029,2.029,0,0,0-2-2H403.525a2.03,2.03,0,0,0-2,2q0,4.914.013,9.828.015,11.392.031,22.786.018,14.475.037,28.949.017,14.093.032,28.186.011,10.464.016,20.927v1.765c0,2.574,4,2.578,4,0q0-9.759-.013-19.517-.014-13.887-.031-27.774-.018-14.616-.037-29.232-.015-11.9-.032-23.8-.006-3.94-.011-7.881c0-1.3.1-2.651,0-3.947-.008-.095,0-.194,0-.29l-2,2h78.907l-2-2c0,10.036.092,20.073.161,30.108q.124,18.339.257,36.676c.024,3.595.058,7.19.059,10.785,0,2.574,4,2.578,4,0Z"></path><path class="c" d="M472.991,181.6H405.216c-2.574,0-2.578,4,0,4h67.775c2.574,0,2.579-4,0-4Z"></path><path class="c" d="M482.909,168.39H405.216c-2.574,0-2.578,4,0,4h77.693c2.573,0,2.578-4,0-4Z"></path><path class="c" d="M456.488,181.981H431.636c-2.574,0-2.578,4,0,4h24.852c2.574,0,2.578-4,0-4Z"></path><path class="c" d="M335.148,132.569c-4.056,0-8.113.022-12.17.023a2.029,2.029,0,0,0-2,2v11.9a2.03,2.03,0,0,0,2,2H335.1a2.029,2.029,0,0,0,2-2c0-3.975.049-7.95.051-11.926a2,2,0,1,0-4,0c0,3.976-.05,7.951-.051,11.926l2-2H322.978l2,2v-11.9l-2,2c4.057,0,8.114-.022,12.17-.023a2,2,0,0,0,0-4Z"></path><path class="c" d="M357.014,132.569c-4.057,0-8.114.022-12.17.023a2.029,2.029,0,0,0-2,2v11.9a2.029,2.029,0,0,0,2,2h12.118a2.028,2.028,0,0,0,2-2c0-3.975.049-7.95.052-11.926a2,2,0,1,0-4,0c0,3.976-.051,7.951-.052,11.926l2-2H344.844l2,2v-11.9l-2,2c4.056,0,8.113-.022,12.17-.023a2,2,0,0,0,0-4Z"></path><path class="c" d="M234.672,207.4c0-11.332-.1-22.664-.161-33.995q-.13-23.7-.257-47.392c-.025-5.126-.058-10.252-.059-15.378a2.028,2.028,0,0,0-2-2H130.567a2.029,2.029,0,0,0-2,2q0,14.135.044,28.27.039,24.624.07,49.248.01,9.709.015,19.417c0,2.574,4,2.578,4,0q0-20.441-.043-40.881-.033-22.842-.07-45.684-.007-5.186-.016-10.37l-2,2H232.2l-2-2c0,11.584.1,23.169.161,34.753q.129,23.589.257,47.18c.025,4.944.058,9.888.059,14.832,0,2.574,4,2.578,4,0Z"></path><path class="c" d="M1.932,209.663q8.276,0,16.55,0l36.913-.013,52.8-.018,62.948-.022,69-.025,69.334-.025,64.916-.023,55.506-.019L471,209.5l21.709-.007H494.5c2.574,0,2.578-4,0-4q-8.163,0-16.327,0l-36.739.012-52.67.018-62.87.023-68.972.024-69.352.025-64.982.023-55.621.019-41.266.014q-10.961,0-21.92.007H1.932c-2.574,0-2.578,4,0,4Z"></path><path class="c" d="M477.028,94.624c-5.9,6.644-11.653,13.416-17.532,20.077-1.119,1.267-2.228,2.547-3.39,3.775-1.769,1.869,1.054,4.7,2.828,2.828,6.156-6.5,11.868-13.467,17.748-20.219,1.056-1.213,2.107-2.43,3.175-3.633,1.7-1.919-1.115-4.758-2.829-2.828Z"></path><path class="c" d="M479.925,106.757c-2.5,2.81-4.929,5.675-7.417,8.492-.473.536-.942,1.078-1.434,1.6a2,2,0,0,0,2.829,2.829c2.6-2.752,5.02-5.7,7.507-8.553.447-.513.892-1.028,1.343-1.537a2,2,0,1,0-2.828-2.828Z"></path><path class="c" d="M432.208,142.92c-6.237,7.026-12.322,14.186-18.539,21.23-1.215,1.378-2.42,2.769-3.683,4.1-1.769,1.869,1.055,4.7,2.829,2.828,6.51-6.878,12.552-14.243,18.77-21.384,1.148-1.318,2.291-2.642,3.452-3.949,1.7-1.919-1.115-4.758-2.829-2.829Z"></path><path class="c" d="M390.2,171.077c-5.421-3.711-10.865,3.853-12.933,8.084a22.93,22.93,0,0,0-2.222,8.921c-.194,3.095-.06,6.171,1.968,8.687,3.046,3.78,8.736,4,13.181,3.369,2.483-.35,4.812-1.01,6.561-2.935,2.155-2.371,2.542-5.375,2.374-8.463a23.855,23.855,0,0,0-2.44-9.936,22.507,22.507,0,0,0-6.084-7.414,2.065,2.065,0,0,0-2.829,0,2.013,2.013,0,0,0,0,2.828,19.05,19.05,0,0,1,6.97,10.769,17.717,17.717,0,0,1,.223,7.361,4.735,4.735,0,0,1-3.319,3.446c-3,.825-6.825,1.042-9.753-.174a5.034,5.034,0,0,1-2.915-4.459,21.3,21.3,0,0,1,.668-7.2,19.041,19.041,0,0,1,3.311-6.4c1.121-1.425,3.23-4.387,5.22-3.025C390.311,175.988,392.314,172.524,390.2,171.077Z"></path><path class="c" d="M388.593,198.773v8.378a2,2,0,0,0,4,0v-8.378a2,2,0,1,0-4,0Z"></path><path class="c" d="M381.181,198.773v8.378a2,2,0,0,0,4,0v-8.378a2,2,0,1,0-4,0Z"></path><path class="c" d="M118.074,171.077c-5.421-3.711-10.865,3.853-12.933,8.084a22.93,22.93,0,0,0-2.222,8.921c-.194,3.095-.06,6.171,1.968,8.687,3.046,3.78,8.736,4,13.181,3.369,2.483-.35,4.812-1.01,6.561-2.935,2.155-2.371,2.542-5.375,2.374-8.463a23.855,23.855,0,0,0-2.44-9.936,22.507,22.507,0,0,0-6.084-7.414,2.065,2.065,0,0,0-2.829,0,2.013,2.013,0,0,0,0,2.828,19.05,19.05,0,0,1,6.97,10.769,17.717,17.717,0,0,1,.223,7.361,4.735,4.735,0,0,1-3.319,3.446c-3,.825-6.825,1.042-9.753-.174a5.034,5.034,0,0,1-2.915-4.459,21.3,21.3,0,0,1,.668-7.2,19.041,19.041,0,0,1,3.311-6.4c1.121-1.425,3.23-4.387,5.22-3.025C118.185,175.988,120.188,172.524,118.074,171.077Z"></path><path class="c" d="M116.467,198.773v8.378a2,2,0,0,0,4,0v-8.378a2,2,0,0,0-4,0Z"></path><path class="c" d="M109.055,198.773v8.378a2,2,0,0,0,4,0v-8.378a2,2,0,1,0-4,0Z"></path><path class="c" d="M486.011,171.077c-5.421-3.711-10.865,3.853-12.933,8.084a22.93,22.93,0,0,0-2.222,8.921c-.194,3.095-.06,6.171,1.968,8.687,3.046,3.78,8.736,4,13.181,3.369,2.483-.35,4.812-1.01,6.561-2.935,2.155-2.371,2.542-5.375,2.374-8.463a23.855,23.855,0,0,0-2.44-9.936,22.507,22.507,0,0,0-6.084-7.414,2.065,2.065,0,0,0-2.829,0,2.013,2.013,0,0,0,0,2.828,19.05,19.05,0,0,1,6.97,10.769,17.717,17.717,0,0,1,.223,7.361,4.735,4.735,0,0,1-3.319,3.446c-3,.825-6.825,1.042-9.753-.174a5.034,5.034,0,0,1-2.915-4.459,21.3,21.3,0,0,1,.668-7.2,19.041,19.041,0,0,1,3.311-6.4c1.121-1.425,3.23-4.387,5.22-3.025C486.122,175.988,488.125,172.524,486.011,171.077Z"></path><path class="c" d="M484.4,198.773v8.378a2,2,0,1,0,4,0v-8.378a2,2,0,0,0-4,0Z"></path><path class="c" d="M476.992,198.773v8.378a2,2,0,0,0,4,0v-8.378a2,2,0,1,0-4,0Z"></path><path class="c" d="M18.074,171.077c-5.421-3.711-10.865,3.853-12.933,8.084a22.93,22.93,0,0,0-2.222,8.921c-.194,3.095-.06,6.171,1.968,8.687,3.046,3.78,8.736,4,13.181,3.369,2.483-.35,4.812-1.01,6.561-2.935,2.155-2.371,2.542-5.375,2.374-8.463a23.855,23.855,0,0,0-2.44-9.936,22.507,22.507,0,0,0-6.084-7.414,2.065,2.065,0,0,0-2.829,0,2.013,2.013,0,0,0,0,2.828,19.05,19.05,0,0,1,6.97,10.769,17.717,17.717,0,0,1,.223,7.361,4.735,4.735,0,0,1-3.319,3.446c-3,.825-6.825,1.042-9.753-.174a5.034,5.034,0,0,1-2.915-4.459,21.3,21.3,0,0,1,.668-7.2,19.041,19.041,0,0,1,3.311-6.4c1.121-1.425,3.23-4.387,5.22-3.025C18.185,175.988,20.188,172.524,18.074,171.077Z"></path><path class="c" d="M16.467,198.773v8.378a2,2,0,0,0,4,0v-8.378a2,2,0,0,0-4,0Z"></path><path class="c" d="M9.055,198.773v8.378a2,2,0,0,0,4,0v-8.378a2,2,0,0,0-4,0Z"></path><path class="a" d="M433.777,45.179a9.941,9.941,0,0,1-10.669-4.6c-2.027-3.517,1.736-8.88,4.873-7.416-.949-1.911.243-5.056,1.934-6.357,3.534-2.718,9.087-1.162,9.989-.621-.241-1.408,1.936-5.977,9.964-5.977,5.8,0,9.266,4.047,9.946,5.777l.17.433a9.536,9.536,0,0,1,8.464-.105,8.241,8.241,0,0,1,4.27,6.923c.095,3.187-1.253,6.272-3.928,7.292a8.685,8.685,0,0,1-5.549.233,7.027,7.027,0,0,1-3.326,5.436,17.468,17.468,0,0,1-6.836,2.157,38.7,38.7,0,0,1-8.429-.115,17.691,17.691,0,0,1-9.036-3.6A8.25,8.25,0,0,1,433.777,45.179Z"></path><path class="c" d="M433.245,43.251a8.2,8.2,0,0,1-7.9-2.883,3.329,3.329,0,0,1-.315-3.858,3.609,3.609,0,0,1,1.141-1.328,1.05,1.05,0,0,1,1.277-.089c1.825.75,2.855-1.564,2.259-2.938-.394-.909.275-2.333.786-3.063a4.622,4.622,0,0,1,3.04-1.71,9.793,9.793,0,0,1,3.281-.014,11.476,11.476,0,0,1,1.432.319q.312.09.618.2c.211.076-.37-.2.03.025,1.673.926,3.161-.6,2.938-2.259.108.8.081.307.058.184.041.22-.138.455,0,.105.064-.165.275-.7.07-.276a5.574,5.574,0,0,1,.5-.838c-.186.258.323-.351.435-.461a8.969,8.969,0,0,1,5.156-2.074,10.725,10.725,0,0,1,7.222,1.545,9.328,9.328,0,0,1,2,1.8,4.57,4.57,0,0,1,.473.672c.088.138.16.286.236.431-.2-.388-.009-.019.081.211a2.041,2.041,0,0,0,2.938,1.2c3.853-1.906,8.867-.167,9.648,4.331a6.519,6.519,0,0,1-1.333,5.338c-1.423,1.522-3.669,1.383-5.536,1.019a2.036,2.036,0,0,0-2.531,1.928c-.4,4.9-7.239,5.707-11,5.771-4.4.075-9.695-.3-13.214-3.306a2,2,0,0,0-1.946-.514,10.1,10.1,0,0,1-1.837.538c-2.52.513-1.453,4.369,1.064,3.857a10.207,10.207,0,0,0,1.837-.538l-1.946-.514c4.711,4.018,11.473,4.787,17.439,4.422,6.009-.368,13.038-2.77,13.6-9.716l-2.532,1.929c3.218.627,6.645.56,9.19-1.812,2.406-2.242,3.173-5.956,2.662-9.1a10.123,10.123,0,0,0-5.6-7.433,11.672,11.672,0,0,0-9.984.346l2.938,1.2c-2.293-5.837-8.8-8.275-14.694-7.5-4.057.537-9.914,3.345-9.244,8.325l2.938-2.258a12.77,12.77,0,0,0-9.731-.569c-4.058,1.5-6.737,6.113-4.928,10.283l2.259-2.938c-2.49-1.023-5.022.538-6.465,2.525a7.442,7.442,0,0,0-.868,7.426c2.356,4.938,8.033,6.793,13.129,5.922a2.017,2.017,0,0,0,1.4-2.46A2.046,2.046,0,0,0,433.245,43.251Z"></path><path class="c" d="M438.428,39.812a6.489,6.489,0,0,0,9.012,2.417,2,2,0,1,0-2.019-3.454,4.137,4.137,0,0,1-.62.339l.478-.2a4.357,4.357,0,0,1-1.051.288l.532-.072a4.822,4.822,0,0,1-1.253-.007l.532.071a5.052,5.052,0,0,1-1.213-.339l.478.2a4.864,4.864,0,0,1-1.013-.6l.405.313a4.4,4.4,0,0,1-.715-.716l.313.405a4.139,4.139,0,0,1-.412-.668,2.011,2.011,0,0,0-2.736-.717,2.05,2.05,0,0,0-.718,2.736Z"></path><path class="c" d="M144.127,37.016a7.135,7.135,0,0,0,9.111,10.818L150.5,45.1a6.055,6.055,0,0,0,.943,7.291c1.932,2.126,4.959,2.661,7.665,3.012,5.846.759,12.033-.093,15.783-5.086a2.013,2.013,0,0,0-.717-2.736,2.049,2.049,0,0,0-2.737.717c-2.384,3.175-6.828,3.591-10.468,3.306a15.128,15.128,0,0,1-5.452-1.129c-1.212-.6-2.445-2-1.563-3.356,1.1-1.7-1.065-3.748-2.736-2.737a3.327,3.327,0,0,1-4.042-.364,3.279,3.279,0,0,1-.221-4.172,2.06,2.06,0,0,0,0-2.828,2.015,2.015,0,0,0-2.829,0Z"></path><path class="a" d="M165.124,38.425c-4.562.83-11.673.019-15.55-6.706-2.955-5.127,2.531-12.946,7.1-10.811-1.383-2.786.353-7.372,2.818-9.267,5.153-3.963,13.248-1.7,14.563-.907-.351-2.052,2.822-8.713,14.526-8.713,8.461,0,13.508,5.9,14.5,8.422l.248.631a13.9,13.9,0,0,1,12.339-.153A12.013,12.013,0,0,1,221.9,21.013c.139,4.647-1.826,9.145-5.726,10.631-2.884,1.1-4.826,1-8.086.341a10.255,10.255,0,0,1-4.851,7.924,25.488,25.488,0,0,1-9.967,3.144,56.487,56.487,0,0,1-12.288-.168c-4.283-.427-9.954-2.391-13.18-5.241A12.17,12.17,0,0,1,165.124,38.425Z"></path><path class="c" d="M164.592,36.5c-4.583.8-9.881-.712-12.675-4.807a5.722,5.722,0,0,1-.344-6.34c.785-1.436,2.6-3.354,4.095-2.716a2.019,2.019,0,0,0,2.737-2.736c-.717-1.582.135-3.75.965-5.11a7.283,7.283,0,0,1,4.84-3.123,14.871,14.871,0,0,1,5.524-.1,17.8,17.8,0,0,1,2.269.51c.292.087.578.186.865.288.245.088-.247-.144.182.1,1.656.939,3.179-.6,2.938-2.258.124.852.083-.273.041.064s.118-.383.158-.544c.052-.209.131-.339,0-.039q.108-.242.232-.476a8.289,8.289,0,0,1,.577-.923c.207-.29-.1.1.144-.177.151-.174.305-.345.466-.51.228-.233.716-.677.815-.754A11.477,11.477,0,0,1,181.1,5.3c5.339-2.206,12.08-1.752,16.7,1.836a16.155,16.155,0,0,1,2.41,2.367,9.574,9.574,0,0,1,.752,1.128c.105.184.2.373.292.564-.263-.539.118.315.155.408a2.039,2.039,0,0,0,2.938,1.2,11.8,11.8,0,0,1,9.988-.324,10.051,10.051,0,0,1,5.436,7.248,10.492,10.492,0,0,1-2.05,8.456c-2.31,2.606-5.974,2.491-9.1,1.876a2.035,2.035,0,0,0-2.532,1.928c-.553,7.665-10.662,9.18-16.643,9.321-6.75.159-14.856-.456-20.228-5.077a1.992,1.992,0,0,0-1.946-.514,13.8,13.8,0,0,1-2.674.782c-2.523.5-1.455,4.353,1.063,3.857a13.8,13.8,0,0,0,2.674-.782l-1.946-.514c6.558,5.64,16.159,6.647,24.467,6.193,8.205-.449,18.533-3.571,19.233-13.266l-2.532,1.929c3.634.715,7.35.869,10.681-1.045a11.741,11.741,0,0,0,5.284-7.823c1.492-7.02-2.008-14.483-9.048-16.792a16.242,16.242,0,0,0-12.146,1.093l2.938,1.2C203.132,5.124,197.707,1.3,192.035.336,186-.686,178.132.5,174.071,5.571a7.452,7.452,0,0,0-1.94,5.7l2.938-2.258a14.077,14.077,0,0,0-4.974-1.4,17.809,17.809,0,0,0-8.247.573,10.826,10.826,0,0,0-6.342,5.332,9.652,9.652,0,0,0-.555,8.407l2.736-2.736C152.135,16.8,147.336,22.4,146.8,27.566c-.625,5.974,5.065,10.932,10.342,12.445a19.029,19.029,0,0,0,8.517.343,2.018,2.018,0,0,0,1.4-2.461A2.045,2.045,0,0,0,164.592,36.5Z"></path><path class="c" d="M172.7,30.137a8.541,8.541,0,0,0,11.885,3.2,2,2,0,1,0-2.019-3.454,5.709,5.709,0,0,1-.543.323,1.412,1.412,0,0,0-.256.125c.273-.23.311-.123.055-.031a5.643,5.643,0,0,1-.6.178c-.092.023-.184.043-.278.061-.205.039-.424-.02.082,0-.4-.014-.8.055-1.2.029-.1-.007-.191-.017-.286-.025-.419-.035.487.1.076.007-.207-.045-.413-.083-.618-.138s-.405-.12-.6-.193c-.071-.027-.4-.149-.081-.028s0-.007-.074-.042c-.376-.183-.7-.479-1.073-.655.132.062.332.278.095.062-.071-.063-.143-.125-.212-.19-.166-.157-.315-.326-.468-.5-.23-.255.195.294.068.091-.05-.08-.11-.155-.161-.235a6,6,0,0,1-.337-.6,2.012,2.012,0,0,0-2.736-.718,2.052,2.052,0,0,0-.718,2.737Z"></path></svg>